<mxfile host="app.diagrams.net" modified="2024-05-02T02:14:55.119Z" agent="Mozilla/5.0 (Windows NT 10.0; Win64; x64) AppleWebKit/537.36 (KHTML, like Gecko) Chrome/121.0.0.0 Safari/537.36" etag="A1GR2jFt4FJiibHgPS7-" version="24.3.1" type="google">
  <diagram name="Page-1" id="74e2e168-ea6b-b213-b513-2b3c1d86103e">
    <mxGraphModel dx="1687" dy="929" grid="1" gridSize="10" guides="1" tooltips="1" connect="1" arrows="1" fold="1" page="1" pageScale="1" pageWidth="1100" pageHeight="850" background="none" math="0" shadow="0">
      <root>
        <mxCell id="0" />
        <mxCell id="1" parent="0" />
        <mxCell id="77e6c97f196da883-1" value="Pendaftaran" style="swimlane;html=1;childLayout=stackLayout;startSize=20;rounded=0;shadow=0;labelBackgroundColor=none;strokeWidth=1;fontFamily=Verdana;fontSize=8;align=center;" parent="1" vertex="1">
          <mxGeometry x="290" y="10" width="1180" height="840" as="geometry" />
        </mxCell>
        <mxCell id="77e6c97f196da883-2" value="Pendaftar" style="swimlane;html=1;startSize=20;" parent="77e6c97f196da883-1" vertex="1">
          <mxGeometry y="20" width="430" height="820" as="geometry" />
        </mxCell>
        <mxCell id="cSFCIr0A3r-JK_fj5tzC-4" value="start" style="strokeWidth=2;html=1;shape=mxgraph.flowchart.terminator;whiteSpace=wrap;fillColor=#d5e8d4;strokeColor=#82b366;" vertex="1" parent="77e6c97f196da883-2">
          <mxGeometry x="20" y="40" width="80" height="50" as="geometry" />
        </mxCell>
        <mxCell id="cSFCIr0A3r-JK_fj5tzC-7" value="pendaftar mengisi&lt;br style=&quot;font-size: 10px;&quot;&gt;formulir pendaftaran&lt;br style=&quot;font-size: 10px;&quot;&gt;" style="strokeWidth=2;html=1;shape=mxgraph.flowchart.document2;whiteSpace=wrap;size=0.25;fontSize=10;fillColor=#f8cecc;strokeColor=#b85450;" vertex="1" parent="77e6c97f196da883-2">
          <mxGeometry x="10" y="240" width="100" height="60" as="geometry" />
        </mxCell>
        <mxCell id="cSFCIr0A3r-JK_fj5tzC-9" value="pendaftar memberikan formulir pendaftaran" style="verticalLabelPosition=middle;verticalAlign=middle;html=1;shape=trapezoid;perimeter=trapezoidPerimeter;whiteSpace=wrap;size=0.23;arcSize=10;flipV=1;labelPosition=center;align=center;fontSize=11;" vertex="1" parent="77e6c97f196da883-2">
          <mxGeometry x="200" y="240" width="100" height="60" as="geometry" />
        </mxCell>
        <mxCell id="cSFCIr0A3r-JK_fj5tzC-18" value="pendaftar menerima formulir&lt;div&gt;&lt;br/&gt;&lt;/div&gt;" style="strokeWidth=2;html=1;shape=mxgraph.flowchart.document2;whiteSpace=wrap;size=0.25;fillColor=#f8cecc;strokeColor=#b85450;" vertex="1" parent="77e6c97f196da883-2">
          <mxGeometry x="90" y="450" width="100" height="60" as="geometry" />
        </mxCell>
        <mxCell id="cSFCIr0A3r-JK_fj5tzC-24" value="pendaftar&amp;nbsp;&lt;br&gt;menerima&amp;nbsp;&lt;br&gt;formulir" style="verticalLabelPosition=middle;verticalAlign=middle;html=1;shape=trapezoid;perimeter=trapezoidPerimeter;whiteSpace=wrap;size=0.23;arcSize=10;flipV=1;labelPosition=center;align=center;fontSize=11;" vertex="1" parent="77e6c97f196da883-2">
          <mxGeometry x="10" y="130" width="120" height="70" as="geometry" />
        </mxCell>
        <mxCell id="cSFCIr0A3r-JK_fj5tzC-27" value="" style="endArrow=classic;html=1;rounded=0;exitX=0.5;exitY=1;exitDx=0;exitDy=0;entryX=0.6;entryY=0;entryDx=0;entryDy=0;entryPerimeter=0;" edge="1" parent="77e6c97f196da883-2" source="cSFCIr0A3r-JK_fj5tzC-24" target="cSFCIr0A3r-JK_fj5tzC-7">
          <mxGeometry width="50" height="50" relative="1" as="geometry">
            <mxPoint x="290" y="370" as="sourcePoint" />
            <mxPoint x="340" y="320" as="targetPoint" />
          </mxGeometry>
        </mxCell>
        <mxCell id="cSFCIr0A3r-JK_fj5tzC-28" value="" style="endArrow=classic;html=1;rounded=0;exitX=1;exitY=0.5;exitDx=0;exitDy=0;entryX=0;entryY=0.5;entryDx=0;entryDy=0;exitPerimeter=0;" edge="1" parent="77e6c97f196da883-2" source="cSFCIr0A3r-JK_fj5tzC-7" target="cSFCIr0A3r-JK_fj5tzC-9">
          <mxGeometry width="50" height="50" relative="1" as="geometry">
            <mxPoint x="80" y="210" as="sourcePoint" />
            <mxPoint x="80" y="250" as="targetPoint" />
          </mxGeometry>
        </mxCell>
        <mxCell id="cSFCIr0A3r-JK_fj5tzC-44" value="Bila Formulir Tidak Lengkap" style="text;html=1;align=center;verticalAlign=middle;whiteSpace=wrap;rounded=0;" vertex="1" parent="77e6c97f196da883-2">
          <mxGeometry x="200" y="360" width="190" height="30" as="geometry" />
        </mxCell>
        <mxCell id="cSFCIr0A3r-JK_fj5tzC-45" value="pendaftar&lt;br style=&quot;font-size: 10px;&quot;&gt;memberikan&lt;br style=&quot;font-size: 10px;&quot;&gt;uang&lt;div style=&quot;font-size: 10px;&quot;&gt;&amp;nbsp;pendaftaran&lt;br style=&quot;font-size: 10px;&quot;&gt;&lt;/div&gt;" style="verticalLabelPosition=middle;verticalAlign=middle;html=1;shape=trapezoid;perimeter=trapezoidPerimeter;whiteSpace=wrap;size=0.23;arcSize=10;flipV=1;labelPosition=center;align=center;fontSize=10;" vertex="1" parent="77e6c97f196da883-2">
          <mxGeometry x="90" y="570" width="100" height="60" as="geometry" />
        </mxCell>
        <mxCell id="cSFCIr0A3r-JK_fj5tzC-46" value="" style="endArrow=classic;html=1;rounded=0;exitX=0.43;exitY=0.95;exitDx=0;exitDy=0;exitPerimeter=0;entryX=0.43;entryY=1.017;entryDx=0;entryDy=0;entryPerimeter=0;" edge="1" parent="77e6c97f196da883-2" source="cSFCIr0A3r-JK_fj5tzC-18" target="cSFCIr0A3r-JK_fj5tzC-45">
          <mxGeometry width="50" height="50" relative="1" as="geometry">
            <mxPoint x="540" y="520" as="sourcePoint" />
            <mxPoint x="590" y="470" as="targetPoint" />
          </mxGeometry>
        </mxCell>
        <mxCell id="cSFCIr0A3r-JK_fj5tzC-49" value="" style="endArrow=classic;html=1;rounded=0;exitX=0.5;exitY=1;exitDx=0;exitDy=0;exitPerimeter=0;" edge="1" parent="77e6c97f196da883-2" source="cSFCIr0A3r-JK_fj5tzC-4">
          <mxGeometry width="50" height="50" relative="1" as="geometry">
            <mxPoint x="540" y="220" as="sourcePoint" />
            <mxPoint x="60" y="130" as="targetPoint" />
          </mxGeometry>
        </mxCell>
        <mxCell id="cSFCIr0A3r-JK_fj5tzC-67" value="pendaftar menerima bukti pembayaran" style="verticalLabelPosition=middle;verticalAlign=middle;html=1;shape=trapezoid;perimeter=trapezoidPerimeter;whiteSpace=wrap;size=0.23;arcSize=10;flipV=1;labelPosition=center;align=center;fontSize=10;" vertex="1" parent="77e6c97f196da883-2">
          <mxGeometry x="90" y="715" width="90" height="50" as="geometry" />
        </mxCell>
        <mxCell id="77e6c97f196da883-3" value="Petugas TU" style="swimlane;html=1;startSize=20;" parent="77e6c97f196da883-1" vertex="1">
          <mxGeometry x="430" y="20" width="430" height="820" as="geometry" />
        </mxCell>
        <mxCell id="cSFCIr0A3r-JK_fj5tzC-13" value="petugas menerima&lt;br&gt;formulir&lt;div&gt;&lt;br/&gt;&lt;/div&gt;" style="strokeWidth=2;html=1;shape=mxgraph.flowchart.document2;whiteSpace=wrap;size=0.25;fillColor=#f8cecc;strokeColor=#b85450;" vertex="1" parent="77e6c97f196da883-3">
          <mxGeometry x="100" y="140" width="100" height="60" as="geometry" />
        </mxCell>
        <mxCell id="cSFCIr0A3r-JK_fj5tzC-14" value="petugas melakukan&lt;br&gt;cek validasi" style="verticalLabelPosition=middle;verticalAlign=middle;html=1;shape=trapezoid;perimeter=trapezoidPerimeter;whiteSpace=wrap;size=0.23;arcSize=10;flipV=1;labelPosition=center;align=center;" vertex="1" parent="77e6c97f196da883-3">
          <mxGeometry x="90" y="270" width="100" height="60" as="geometry" />
        </mxCell>
        <mxCell id="cSFCIr0A3r-JK_fj5tzC-16" value="membuat surat keterangan&lt;br style=&quot;font-size: 10px;&quot;&gt;terima formulir&lt;br style=&quot;font-size: 10px;&quot;&gt;" style="verticalLabelPosition=middle;verticalAlign=middle;html=1;shape=trapezoid;perimeter=trapezoidPerimeter;whiteSpace=wrap;size=0.23;arcSize=10;flipV=1;labelPosition=center;align=center;fontSize=10;" vertex="1" parent="77e6c97f196da883-3">
          <mxGeometry x="90" y="450" width="100" height="60" as="geometry" />
        </mxCell>
        <mxCell id="cSFCIr0A3r-JK_fj5tzC-26" value="" style="strokeWidth=2;html=1;shape=mxgraph.flowchart.decision;whiteSpace=wrap;fillColor=#fff2cc;strokeColor=#d6b656;" vertex="1" parent="77e6c97f196da883-3">
          <mxGeometry x="120" y="370" width="40" height="40" as="geometry" />
        </mxCell>
        <mxCell id="cSFCIr0A3r-JK_fj5tzC-33" value="" style="endArrow=classic;html=1;rounded=0;entryX=0.5;entryY=0;entryDx=0;entryDy=0;exitX=0.408;exitY=0.95;exitDx=0;exitDy=0;exitPerimeter=0;" edge="1" parent="77e6c97f196da883-3" source="cSFCIr0A3r-JK_fj5tzC-13" target="cSFCIr0A3r-JK_fj5tzC-14">
          <mxGeometry width="50" height="50" relative="1" as="geometry">
            <mxPoint x="140" y="210" as="sourcePoint" />
            <mxPoint x="-10" y="230" as="targetPoint" />
          </mxGeometry>
        </mxCell>
        <mxCell id="cSFCIr0A3r-JK_fj5tzC-35" value="" style="endArrow=classic;html=1;rounded=0;exitX=0.5;exitY=1;exitDx=0;exitDy=0;entryX=0.5;entryY=0;entryDx=0;entryDy=0;entryPerimeter=0;" edge="1" parent="77e6c97f196da883-3" source="cSFCIr0A3r-JK_fj5tzC-14" target="cSFCIr0A3r-JK_fj5tzC-26">
          <mxGeometry width="50" height="50" relative="1" as="geometry">
            <mxPoint x="-30" y="360" as="sourcePoint" />
            <mxPoint x="20" y="310" as="targetPoint" />
          </mxGeometry>
        </mxCell>
        <mxCell id="cSFCIr0A3r-JK_fj5tzC-41" value="" style="endArrow=classic;html=1;rounded=0;exitX=0.5;exitY=1;exitDx=0;exitDy=0;exitPerimeter=0;entryX=0.5;entryY=0;entryDx=0;entryDy=0;" edge="1" parent="77e6c97f196da883-3" source="cSFCIr0A3r-JK_fj5tzC-26" target="cSFCIr0A3r-JK_fj5tzC-16">
          <mxGeometry width="50" height="50" relative="1" as="geometry">
            <mxPoint x="-30" y="450" as="sourcePoint" />
            <mxPoint x="20" y="400" as="targetPoint" />
          </mxGeometry>
        </mxCell>
        <mxCell id="cSFCIr0A3r-JK_fj5tzC-47" value="petugas menerima&lt;br&gt;uang daftar" style="verticalLabelPosition=middle;verticalAlign=middle;html=1;shape=trapezoid;perimeter=trapezoidPerimeter;whiteSpace=wrap;size=0.23;arcSize=10;flipV=1;labelPosition=center;align=center;" vertex="1" parent="77e6c97f196da883-3">
          <mxGeometry x="85" y="570" width="100" height="60" as="geometry" />
        </mxCell>
        <mxCell id="cSFCIr0A3r-JK_fj5tzC-54" value="" style="shape=offPageConnector;whiteSpace=wrap;html=1;size=0.375;" vertex="1" parent="77e6c97f196da883-3">
          <mxGeometry x="210" y="700" width="80" height="80" as="geometry" />
        </mxCell>
        <mxCell id="cSFCIr0A3r-JK_fj5tzC-55" value="bukti pembayaran diberikan kepada pendaftar" style="text;html=1;align=center;verticalAlign=middle;whiteSpace=wrap;rounded=0;fontSize=9;" vertex="1" parent="77e6c97f196da883-3">
          <mxGeometry x="207.5" y="730" width="85" height="10" as="geometry" />
        </mxCell>
        <mxCell id="cSFCIr0A3r-JK_fj5tzC-56" value="" style="shape=offPageConnector;whiteSpace=wrap;html=1;" vertex="1" parent="77e6c97f196da883-3">
          <mxGeometry x="320" y="700" width="80" height="80" as="geometry" />
        </mxCell>
        <mxCell id="cSFCIr0A3r-JK_fj5tzC-57" value="bukti pembayaran dan daftar diberikan kepada pimpinan" style="text;html=1;align=center;verticalAlign=middle;whiteSpace=wrap;rounded=0;fontSize=9;" vertex="1" parent="77e6c97f196da883-3">
          <mxGeometry x="325" y="715" width="70" height="40" as="geometry" />
        </mxCell>
        <mxCell id="cSFCIr0A3r-JK_fj5tzC-65" value="" style="endArrow=classic;html=1;rounded=0;exitX=1;exitY=0.5;exitDx=0;exitDy=0;entryX=0.018;entryY=0.412;entryDx=0;entryDy=0;entryPerimeter=0;" edge="1" parent="77e6c97f196da883-3" source="cSFCIr0A3r-JK_fj5tzC-47">
          <mxGeometry width="50" height="50" relative="1" as="geometry">
            <mxPoint x="150" y="630" as="sourcePoint" />
            <mxPoint x="251.80000000000018" y="599.7199999999998" as="targetPoint" />
          </mxGeometry>
        </mxCell>
        <mxCell id="cSFCIr0A3r-JK_fj5tzC-72" value="" style="strokeWidth=2;html=1;shape=mxgraph.flowchart.document2;whiteSpace=wrap;size=0.25;fillColor=#fff2cc;strokeColor=#d6b656;" vertex="1" parent="77e6c97f196da883-3">
          <mxGeometry x="250" y="580" width="100" height="60" as="geometry" />
        </mxCell>
        <mxCell id="cSFCIr0A3r-JK_fj5tzC-74" value="" style="strokeWidth=2;html=1;shape=mxgraph.flowchart.document2;whiteSpace=wrap;size=0.25;fillColor=#dae8fc;strokeColor=#6c8ebf;" vertex="1" parent="77e6c97f196da883-3">
          <mxGeometry x="260" y="590" width="100" height="60" as="geometry" />
        </mxCell>
        <mxCell id="cSFCIr0A3r-JK_fj5tzC-61" value="" style="endArrow=none;html=1;rounded=0;" edge="1" parent="77e6c97f196da883-3">
          <mxGeometry width="50" height="50" relative="1" as="geometry">
            <mxPoint x="250" y="670" as="sourcePoint" />
            <mxPoint x="360" y="670" as="targetPoint" />
          </mxGeometry>
        </mxCell>
        <mxCell id="cSFCIr0A3r-JK_fj5tzC-75" value="petugas membuat laporan rangkap 2" style="strokeWidth=2;html=1;shape=mxgraph.flowchart.document2;whiteSpace=wrap;size=0.25;fillColor=#dae8fc;strokeColor=#6c8ebf;" vertex="1" parent="77e6c97f196da883-3">
          <mxGeometry x="270" y="600" width="100" height="60" as="geometry" />
        </mxCell>
        <mxCell id="cSFCIr0A3r-JK_fj5tzC-23" value="Pimpinan TU" style="swimlane;html=1;startSize=20;" vertex="1" parent="77e6c97f196da883-1">
          <mxGeometry x="860" y="20" width="320" height="820" as="geometry" />
        </mxCell>
        <mxCell id="cSFCIr0A3r-JK_fj5tzC-42" value="" style="endArrow=classic;html=1;rounded=0;entryX=1;entryY=0.5;entryDx=0;entryDy=0;entryPerimeter=0;" edge="1" parent="77e6c97f196da883-1" source="cSFCIr0A3r-JK_fj5tzC-16" target="cSFCIr0A3r-JK_fj5tzC-18">
          <mxGeometry width="50" height="50" relative="1" as="geometry">
            <mxPoint x="310" y="550" as="sourcePoint" />
            <mxPoint x="360" y="500" as="targetPoint" />
          </mxGeometry>
        </mxCell>
        <mxCell id="cSFCIr0A3r-JK_fj5tzC-48" value="" style="endArrow=classic;html=1;rounded=0;exitX=1;exitY=0.5;exitDx=0;exitDy=0;entryX=0;entryY=0.5;entryDx=0;entryDy=0;" edge="1" parent="77e6c97f196da883-1" source="cSFCIr0A3r-JK_fj5tzC-45" target="cSFCIr0A3r-JK_fj5tzC-47">
          <mxGeometry width="50" height="50" relative="1" as="geometry">
            <mxPoint x="540" y="540" as="sourcePoint" />
            <mxPoint x="590" y="490" as="targetPoint" />
          </mxGeometry>
        </mxCell>
        <mxCell id="cSFCIr0A3r-JK_fj5tzC-66" value="" style="endArrow=classic;html=1;rounded=0;exitX=0;exitY=0.5;exitDx=0;exitDy=0;entryX=1;entryY=0.5;entryDx=0;entryDy=0;" edge="1" parent="77e6c97f196da883-1" source="cSFCIr0A3r-JK_fj5tzC-54" target="cSFCIr0A3r-JK_fj5tzC-67">
          <mxGeometry width="50" height="50" relative="1" as="geometry">
            <mxPoint x="650" y="680" as="sourcePoint" />
            <mxPoint x="190" y="730" as="targetPoint" />
          </mxGeometry>
        </mxCell>
        <mxCell id="cSFCIr0A3r-JK_fj5tzC-30" value="" style="endArrow=none;html=1;rounded=0;exitX=1;exitY=0.5;exitDx=0;exitDy=0;" edge="1" parent="1" source="cSFCIr0A3r-JK_fj5tzC-9">
          <mxGeometry width="50" height="50" relative="1" as="geometry">
            <mxPoint x="580" y="400" as="sourcePoint" />
            <mxPoint x="660" y="300" as="targetPoint" />
          </mxGeometry>
        </mxCell>
        <mxCell id="cSFCIr0A3r-JK_fj5tzC-31" value="" style="endArrow=none;html=1;rounded=0;" edge="1" parent="1">
          <mxGeometry width="50" height="50" relative="1" as="geometry">
            <mxPoint x="660" y="190" as="sourcePoint" />
            <mxPoint x="660" y="300" as="targetPoint" />
          </mxGeometry>
        </mxCell>
        <mxCell id="cSFCIr0A3r-JK_fj5tzC-32" value="" style="endArrow=classic;html=1;rounded=0;entryX=0;entryY=0.333;entryDx=0;entryDy=0;entryPerimeter=0;" edge="1" parent="1" target="cSFCIr0A3r-JK_fj5tzC-13">
          <mxGeometry width="50" height="50" relative="1" as="geometry">
            <mxPoint x="660" y="190" as="sourcePoint" />
            <mxPoint x="720" y="190" as="targetPoint" />
          </mxGeometry>
        </mxCell>
        <mxCell id="cSFCIr0A3r-JK_fj5tzC-37" value="" style="endArrow=none;html=1;rounded=0;exitX=0;exitY=0.5;exitDx=0;exitDy=0;exitPerimeter=0;" edge="1" parent="1" source="cSFCIr0A3r-JK_fj5tzC-26">
          <mxGeometry width="50" height="50" relative="1" as="geometry">
            <mxPoint x="770" y="480" as="sourcePoint" />
            <mxPoint x="340" y="420" as="targetPoint" />
          </mxGeometry>
        </mxCell>
        <mxCell id="cSFCIr0A3r-JK_fj5tzC-38" value="" style="endArrow=classic;html=1;rounded=0;entryX=0.4;entryY=0.992;entryDx=0;entryDy=0;entryPerimeter=0;" edge="1" parent="1" target="cSFCIr0A3r-JK_fj5tzC-7">
          <mxGeometry width="50" height="50" relative="1" as="geometry">
            <mxPoint x="340" y="420" as="sourcePoint" />
            <mxPoint x="650" y="340" as="targetPoint" />
          </mxGeometry>
        </mxCell>
        <mxCell id="cSFCIr0A3r-JK_fj5tzC-59" value="" style="endArrow=none;html=1;rounded=0;" edge="1" parent="1">
          <mxGeometry width="50" height="50" relative="1" as="geometry">
            <mxPoint x="1023" y="700" as="sourcePoint" />
            <mxPoint x="1023" y="690" as="targetPoint" />
          </mxGeometry>
        </mxCell>
        <mxCell id="cSFCIr0A3r-JK_fj5tzC-63" value="" style="endArrow=classic;html=1;rounded=0;entryX=0.5;entryY=0;entryDx=0;entryDy=0;" edge="1" parent="1" target="cSFCIr0A3r-JK_fj5tzC-54">
          <mxGeometry width="50" height="50" relative="1" as="geometry">
            <mxPoint x="970" y="700" as="sourcePoint" />
            <mxPoint x="990" y="730" as="targetPoint" />
          </mxGeometry>
        </mxCell>
        <mxCell id="cSFCIr0A3r-JK_fj5tzC-64" value="" style="endArrow=classic;html=1;rounded=0;entryX=0.5;entryY=0;entryDx=0;entryDy=0;" edge="1" parent="1" target="cSFCIr0A3r-JK_fj5tzC-56">
          <mxGeometry width="50" height="50" relative="1" as="geometry">
            <mxPoint x="1080" y="700" as="sourcePoint" />
            <mxPoint x="990" y="730" as="targetPoint" />
          </mxGeometry>
        </mxCell>
        <mxCell id="cSFCIr0A3r-JK_fj5tzC-68" value="" style="endArrow=none;html=1;rounded=0;exitX=1;exitY=0.375;exitDx=0;exitDy=0;exitPerimeter=0;" edge="1" parent="1" source="cSFCIr0A3r-JK_fj5tzC-56">
          <mxGeometry width="50" height="50" relative="1" as="geometry">
            <mxPoint x="1180" y="500" as="sourcePoint" />
            <mxPoint x="1230" y="760" as="targetPoint" />
          </mxGeometry>
        </mxCell>
        <mxCell id="cSFCIr0A3r-JK_fj5tzC-69" value="" style="endArrow=none;html=1;rounded=0;" edge="1" parent="1">
          <mxGeometry width="50" height="50" relative="1" as="geometry">
            <mxPoint x="1230" y="760" as="sourcePoint" />
            <mxPoint x="1230" y="140" as="targetPoint" />
          </mxGeometry>
        </mxCell>
        <mxCell id="cSFCIr0A3r-JK_fj5tzC-70" value="" style="endArrow=classic;html=1;rounded=0;" edge="1" parent="1">
          <mxGeometry width="50" height="50" relative="1" as="geometry">
            <mxPoint x="1230" y="140" as="sourcePoint" />
            <mxPoint x="1300" y="140" as="targetPoint" />
          </mxGeometry>
        </mxCell>
      </root>
    </mxGraphModel>
  </diagram>
</mxfile>
